{
    "asset" : {
        "generator" : "Khronos glTF Blender I/O v1.1.45",
        "version" : "2.0"
    },
    "scene" : 0,
    "scenes" : [
        {
            "name" : "Scene",
            "nodes" : [
                0,
                1,
                2,
                3
            ]
        }
    ],
    "nodes" : [
        {
            "mesh" : 0,
            "name" : "ui_button_new",
            "translation" : [
                0,
                1.1581318378448486,
                -1.5458444356918335
            ]
        },
        {
            "mesh" : 1,
            "name" : "skybox"
        },
        {
            "mesh" : 2,
            "name" : "ui_button_quit",
            "translation" : [
                0,
                -0.829399585723877,
                -1.5458444356918335
            ]
        },
        {
            "mesh" : 3,
            "name" : "ui_button_settings",
            "translation" : [
                0,
                0.02014338970184326,
                -1.5458444356918335
            ]
        }
    ],
    "materials" : [
        {
            "doubleSided" : true,
            "emissiveFactor" : [
                0,
                0,
                0
            ],
            "name" : "ui_button_new",
            "pbrMetallicRoughness" : {
                "baseColorTexture" : {
                    "index" : 0,
                    "texCoord" : 0
                },
                "metallicFactor" : 0,
                "roughnessFactor" : 0.5
            }
        },
        {
            "doubleSided" : true,
            "emissiveFactor" : [
                0,
                0,
                0
            ],
            "name" : "skybox",
            "pbrMetallicRoughness" : {
                "baseColorTexture" : {
                    "index" : 1,
                    "texCoord" : 0
                },
                "metallicFactor" : 0,
                "roughnessFactor" : 0.5
            }
        },
        {
            "doubleSided" : true,
            "emissiveFactor" : [
                0,
                0,
                0
            ],
            "name" : "ui_button_quit",
            "pbrMetallicRoughness" : {
                "baseColorTexture" : {
                    "index" : 2,
                    "texCoord" : 0
                },
                "metallicFactor" : 0,
                "roughnessFactor" : 0.5
            }
        },
        {
            "doubleSided" : true,
            "emissiveFactor" : [
                0,
                0,
                0
            ],
            "name" : "ui_button_settings",
            "pbrMetallicRoughness" : {
                "baseColorTexture" : {
                    "index" : 3,
                    "texCoord" : 0
                },
                "metallicFactor" : 0,
                "roughnessFactor" : 0.5
            }
        }
    ],
    "meshes" : [
        {
            "name" : "ui_button_plane",
            "primitives" : [
                {
                    "attributes" : {
                        "POSITION" : 0,
                        "NORMAL" : 1,
                        "TEXCOORD_0" : 2
                    },
                    "indices" : 3,
                    "material" : 0
                }
            ]
        },
        {
            "name" : "Sphere",
            "primitives" : [
                {
                    "attributes" : {
                        "POSITION" : 4,
                        "NORMAL" : 5,
                        "TEXCOORD_0" : 6
                    },
                    "indices" : 7,
                    "material" : 1
                }
            ]
        },
        {
            "name" : "ui_button_plane.001",
            "primitives" : [
                {
                    "attributes" : {
                        "POSITION" : 8,
                        "NORMAL" : 9,
                        "TEXCOORD_0" : 10
                    },
                    "indices" : 3,
                    "material" : 2
                }
            ]
        },
        {
            "name" : "ui_button_plane.002",
            "primitives" : [
                {
                    "attributes" : {
                        "POSITION" : 11,
                        "NORMAL" : 12,
                        "TEXCOORD_0" : 13
                    },
                    "indices" : 3,
                    "material" : 3
                }
            ]
        }
    ],
    "textures" : [
        {
            "source" : 0
        },
        {
            "source" : 1
        },
        {
            "source" : 2
        },
        {
            "source" : 3
        }
    ],
    "images" : [
        {
            "mimeType" : "image/png",
            "name" : "ui_button_new",
            "uri" : "ui_button_new.png"
        },
        {
            "mimeType" : "image/png",
            "name" : "greenwich_park_02_2k",
            "uri" : "greenwich_park_02_2k.png"
        },
        {
            "mimeType" : "image/png",
            "name" : "ui_button_quit",
            "uri" : "ui_button_quit.png"
        },
        {
            "mimeType" : "image/png",
            "name" : "ui_button_settings",
            "uri" : "ui_button_settings.png"
        }
    ],
    "accessors" : [
        {
            "bufferView" : 0,
            "componentType" : 5126,
            "count" : 4,
            "max" : [
                1,
                0.3147110939025879,
                1.31826664073742e-06
            ],
            "min" : [
                -1,
                -0.31471145153045654,
                -1.31826664073742e-06
            ],
            "type" : "VEC3"
        },
        {
            "bufferView" : 1,
            "componentType" : 5126,
            "count" : 4,
            "type" : "VEC3"
        },
        {
            "bufferView" : 2,
            "componentType" : 5126,
            "count" : 4,
            "type" : "VEC2"
        },
        {
            "bufferView" : 3,
            "componentType" : 5123,
            "count" : 6,
            "type" : "SCALAR"
        },
        {
            "bufferView" : 4,
            "componentType" : 5126,
            "count" : 287,
            "max" : [
                1000.0003662109375,
                1000,
                1000.00048828125
            ],
            "min" : [
                -1000.0001220703125,
                -1000,
                -1000
            ],
            "type" : "VEC3"
        },
        {
            "bufferView" : 5,
            "componentType" : 5126,
            "count" : 287,
            "type" : "VEC3"
        },
        {
            "bufferView" : 6,
            "componentType" : 5126,
            "count" : 287,
            "type" : "VEC2"
        },
        {
            "bufferView" : 7,
            "componentType" : 5123,
            "count" : 1440,
            "type" : "SCALAR"
        },
        {
            "bufferView" : 8,
            "componentType" : 5126,
            "count" : 4,
            "max" : [
                1,
                0.3147110939025879,
                1.31826664073742e-06
            ],
            "min" : [
                -1,
                -0.31471145153045654,
                -1.31826664073742e-06
            ],
            "type" : "VEC3"
        },
        {
            "bufferView" : 9,
            "componentType" : 5126,
            "count" : 4,
            "type" : "VEC3"
        },
        {
            "bufferView" : 10,
            "componentType" : 5126,
            "count" : 4,
            "type" : "VEC2"
        },
        {
            "bufferView" : 11,
            "componentType" : 5126,
            "count" : 4,
            "max" : [
                1,
                0.3147110939025879,
                1.31826664073742e-06
            ],
            "min" : [
                -1,
                -0.31471145153045654,
                -1.31826664073742e-06
            ],
            "type" : "VEC3"
        },
        {
            "bufferView" : 12,
            "componentType" : 5126,
            "count" : 4,
            "type" : "VEC3"
        },
        {
            "bufferView" : 13,
            "componentType" : 5126,
            "count" : 4,
            "type" : "VEC2"
        }
    ],
    "bufferViews" : [
        {
            "buffer" : 0,
            "byteLength" : 48,
            "byteOffset" : 0
        },
        {
            "buffer" : 0,
            "byteLength" : 48,
            "byteOffset" : 48
        },
        {
            "buffer" : 0,
            "byteLength" : 32,
            "byteOffset" : 96
        },
        {
            "buffer" : 0,
            "byteLength" : 12,
            "byteOffset" : 128
        },
        {
            "buffer" : 0,
            "byteLength" : 3444,
            "byteOffset" : 140
        },
        {
            "buffer" : 0,
            "byteLength" : 3444,
            "byteOffset" : 3584
        },
        {
            "buffer" : 0,
            "byteLength" : 2296,
            "byteOffset" : 7028
        },
        {
            "buffer" : 0,
            "byteLength" : 2880,
            "byteOffset" : 9324
        },
        {
            "buffer" : 0,
            "byteLength" : 48,
            "byteOffset" : 12204
        },
        {
            "buffer" : 0,
            "byteLength" : 48,
            "byteOffset" : 12252
        },
        {
            "buffer" : 0,
            "byteLength" : 32,
            "byteOffset" : 12300
        },
        {
            "buffer" : 0,
            "byteLength" : 48,
            "byteOffset" : 12332
        },
        {
            "buffer" : 0,
            "byteLength" : 48,
            "byteOffset" : 12380
        },
        {
            "buffer" : 0,
            "byteLength" : 32,
            "byteOffset" : 12428
        }
    ],
    "buffers" : [
        {
            "byteLength" : 12460,
            "uri" : "MainMenu.bin"
        }
    ]
}
