{
    "asset" : {
        "generator" : "Khronos glTF Blender I/O v1.0.5",
        "version" : "2.0"
    },
    "scene" : 0,
    "scenes" : [
        {
            "name" : "Scene",
            "nodes" : [
                0,
                1,
                2,
                3
            ]
        }
    ],
    "nodes" : [
        {
            "mesh" : 0,
            "name" : "ui_button_new",
            "translation" : [
                0,
                4.0197248458862305,
                0.6240658164024353
            ]
        },
        {
            "mesh" : 1,
            "name" : "skybox"
        },
        {
            "mesh" : 2,
            "name" : "ui_button_quit",
            "translation" : [
                0,
                0.9032037258148193,
                0.6240658164024353
            ]
        },
        {
            "mesh" : 3,
            "name" : "ui_button_settings",
            "translation" : [
                0,
                2.8817365169525146,
                0.6240658164024353
            ]
        }
    ],
    "materials" : [
        {
            "doubleSided" : true,
            "name" : "ui_button",
            "pbrMetallicRoughness" : {
                "baseColorTexture" : {
                    "index" : 0,
                    "texCoord" : 0
                },
                "metallicFactor" : 0,
                "roughnessFactor" : 0.5
            }
        },
        {
            "doubleSided" : true,
            "name" : "skybox",
            "pbrMetallicRoughness" : {
                "baseColorTexture" : {
                    "index" : 1,
                    "texCoord" : 0
                },
                "metallicFactor" : 0,
                "roughnessFactor" : 0.5
            }
        }
    ],
    "meshes" : [
        {
            "name" : "ui_button_plane",
            "primitives" : [
                {
                    "attributes" : {
                        "POSITION" : 0,
                        "TEXCOORD_0" : 1
                    },
                    "indices" : 2,
                    "material" : 0
                }
            ]
        },
        {
            "name" : "Sphere",
            "primitives" : [
                {
                    "attributes" : {
                        "POSITION" : 3,
                        "TEXCOORD_0" : 4
                    },
                    "indices" : 5,
                    "material" : 1
                }
            ]
        },
        {
            "name" : "ui_button_plane.001",
            "primitives" : [
                {
                    "attributes" : {
                        "POSITION" : 6,
                        "TEXCOORD_0" : 7
                    },
                    "indices" : 2,
                    "material" : 0
                }
            ]
        },
        {
            "name" : "ui_button_plane.002",
            "primitives" : [
                {
                    "attributes" : {
                        "POSITION" : 8,
                        "TEXCOORD_0" : 9
                    },
                    "indices" : 2,
                    "material" : 0
                }
            ]
        }
    ],
    "textures" : [
        {
            "source" : 0
        },
        {
            "source" : 1
        }
    ],
    "images" : [
        {
            "mimeType" : "image/png",
            "name" : "ui_button_bg",
            "uri" : "ui_button_bg.png"
        },
        {
            "mimeType" : "image/png",
            "name" : "greenwich_park_02_2k",
            "uri" : "greenwich_park_02_2k.png"
        }
    ],
    "accessors" : [
        {
            "bufferView" : 0,
            "componentType" : 5126,
            "count" : 4,
            "max" : [
                1,
                0.3147110939025879,
                1.31826664073742e-06
            ],
            "min" : [
                -1,
                -0.31471145153045654,
                -1.31826664073742e-06
            ],
            "type" : "VEC3"
        },
        {
            "bufferView" : 1,
            "componentType" : 5126,
            "count" : 4,
            "type" : "VEC2"
        },
        {
            "bufferView" : 2,
            "componentType" : 5123,
            "count" : 6,
            "type" : "SCALAR"
        },
        {
            "bufferView" : 3,
            "componentType" : 5126,
            "count" : 287,
            "max" : [
                1000.0003662109375,
                1000,
                1000.00048828125
            ],
            "min" : [
                -1000.0001220703125,
                -1000,
                -1000
            ],
            "type" : "VEC3"
        },
        {
            "bufferView" : 4,
            "componentType" : 5126,
            "count" : 287,
            "type" : "VEC2"
        },
        {
            "bufferView" : 5,
            "componentType" : 5123,
            "count" : 1440,
            "type" : "SCALAR"
        },
        {
            "bufferView" : 6,
            "componentType" : 5126,
            "count" : 4,
            "max" : [
                1,
                0.3147110939025879,
                1.31826664073742e-06
            ],
            "min" : [
                -1,
                -0.31471145153045654,
                -1.31826664073742e-06
            ],
            "type" : "VEC3"
        },
        {
            "bufferView" : 7,
            "componentType" : 5126,
            "count" : 4,
            "type" : "VEC2"
        },
        {
            "bufferView" : 8,
            "componentType" : 5126,
            "count" : 4,
            "max" : [
                1,
                0.3147110939025879,
                1.31826664073742e-06
            ],
            "min" : [
                -1,
                -0.31471145153045654,
                -1.31826664073742e-06
            ],
            "type" : "VEC3"
        },
        {
            "bufferView" : 9,
            "componentType" : 5126,
            "count" : 4,
            "type" : "VEC2"
        }
    ],
    "bufferViews" : [
        {
            "buffer" : 0,
            "byteLength" : 48,
            "byteOffset" : 0
        },
        {
            "buffer" : 0,
            "byteLength" : 32,
            "byteOffset" : 48
        },
        {
            "buffer" : 0,
            "byteLength" : 12,
            "byteOffset" : 80
        },
        {
            "buffer" : 0,
            "byteLength" : 3444,
            "byteOffset" : 92
        },
        {
            "buffer" : 0,
            "byteLength" : 2296,
            "byteOffset" : 3536
        },
        {
            "buffer" : 0,
            "byteLength" : 2880,
            "byteOffset" : 5832
        },
        {
            "buffer" : 0,
            "byteLength" : 48,
            "byteOffset" : 8712
        },
        {
            "buffer" : 0,
            "byteLength" : 32,
            "byteOffset" : 8760
        },
        {
            "buffer" : 0,
            "byteLength" : 48,
            "byteOffset" : 8792
        },
        {
            "buffer" : 0,
            "byteLength" : 32,
            "byteOffset" : 8840
        }
    ],
    "buffers" : [
        {
            "byteLength" : 8872,
            "uri" : "MainMenu.bin"
        }
    ]
}
