{
    "asset" : {
        "generator" : "Khronos glTF Blender I/O v0.9.36",
        "version" : "2.0"
    },
    "scene" : 0,
    "scenes" : [
        {
            "name" : "Scene",
            "nodes" : [
                0,
                1,
                2
            ]
        }
    ],
    "nodes" : [
        {
            "mesh" : 0,
            "name" : "Background",
            "scale" : [
                11.763675689697266,
                7.303360939025879,
                7.303360939025879
            ],
            "translation" : [
                0,
                0,
                -9.265380859375
            ]
        },
        {
            "mesh" : 1,
            "name" : "New",
            "rotation" : [
                0,
                1,
                0,
                -1.6292068494294654e-07
            ],
            "translation" : [
                -5.485294342041016,
                2.0813302993774414,
                -8.779791831970215
            ]
        },
        {
            "mesh" : 2,
            "name" : "Quit",
            "rotation" : [
                0,
                1,
                0,
                -1.6292068494294654e-07
            ],
            "translation" : [
                -5.520084381103516,
                -2.512122869491577,
                -8.78022575378418
            ]
        }
    ],
    "materials" : [
        {
            "doubleSided" : true,
            "name" : "MainMenuBG",
            "pbrMetallicRoughness" : {
                "baseColorTexture" : {
                    "index" : 0,
                    "texCoord" : 0
                },
                "metallicFactor" : 0,
                "roughnessFactor" : 0.5
            }
        },
        {
            "doubleSided" : true,
            "name" : "MainMenuNew",
            "pbrMetallicRoughness" : {
                "baseColorTexture" : {
                    "index" : 1,
                    "texCoord" : 0
                },
                "metallicFactor" : 0,
                "roughnessFactor" : 0.5
            }
        },
        {
            "doubleSided" : true,
            "name" : "MainMenuQuit",
            "pbrMetallicRoughness" : {
                "baseColorTexture" : {
                    "index" : 2,
                    "texCoord" : 0
                },
                "metallicFactor" : 0,
                "roughnessFactor" : 0.5
            }
        }
    ],
    "meshes" : [
        {
            "name" : "BackgroundPlane",
            "primitives" : [
                {
                    "attributes" : {
                        "POSITION" : 0,
                        "TEXCOORD_0" : 1
                    },
                    "indices" : 2,
                    "material" : 0
                }
            ]
        },
        {
            "name" : "NewPlane",
            "primitives" : [
                {
                    "attributes" : {
                        "POSITION" : 3,
                        "TEXCOORD_0" : 4
                    },
                    "indices" : 5,
                    "material" : 1
                }
            ]
        },
        {
            "name" : "QuitPlane",
            "primitives" : [
                {
                    "attributes" : {
                        "POSITION" : 6,
                        "TEXCOORD_0" : 7
                    },
                    "indices" : 5,
                    "material" : 2
                }
            ]
        }
    ],
    "textures" : [
        {
            "source" : 0
        },
        {
            "source" : 1
        },
        {
            "source" : 2
        }
    ],
    "images" : [
        {
            "mimeType" : "image/png",
            "name" : "MainMenuBG",
            "uri" : "MainMenuBG.png"
        },
        {
            "mimeType" : "image/png",
            "name" : "MainMenuNew",
            "uri" : "MainMenuNew.png"
        },
        {
            "mimeType" : "image/png",
            "name" : "MainMenuQuit",
            "uri" : "MainMenuQuit.png"
        }
    ],
    "accessors" : [
        {
            "bufferView" : 0,
            "componentType" : 5126,
            "count" : 4,
            "max" : [
                0.9999997615814209,
                0.9999990463256836,
                0.0040019359439611435
            ],
            "min" : [
                -1.000000238418579,
                -1.0000009536743164,
                -0.001335413777269423
            ],
            "type" : "VEC3"
        },
        {
            "bufferView" : 1,
            "componentType" : 5126,
            "count" : 4,
            "type" : "VEC2"
        },
        {
            "bufferView" : 2,
            "componentType" : 5123,
            "count" : 6,
            "type" : "SCALAR"
        },
        {
            "bufferView" : 3,
            "componentType" : 5126,
            "count" : 4,
            "max" : [
                1,
                0.3147110939025879,
                9.924252708515269e-07
            ],
            "min" : [
                -1,
                -0.31471145153045654,
                -9.924252708515269e-07
            ],
            "type" : "VEC3"
        },
        {
            "bufferView" : 4,
            "componentType" : 5126,
            "count" : 4,
            "type" : "VEC2"
        },
        {
            "bufferView" : 5,
            "componentType" : 5123,
            "count" : 6,
            "type" : "SCALAR"
        },
        {
            "bufferView" : 6,
            "componentType" : 5126,
            "count" : 4,
            "max" : [
                1,
                0.3147110939025879,
                9.924252708515269e-07
            ],
            "min" : [
                -1,
                -0.3147110939025879,
                -9.924252708515269e-07
            ],
            "type" : "VEC3"
        },
        {
            "bufferView" : 7,
            "componentType" : 5126,
            "count" : 4,
            "type" : "VEC2"
        }
    ],
    "bufferViews" : [
        {
            "buffer" : 0,
            "byteLength" : 48,
            "byteOffset" : 0
        },
        {
            "buffer" : 0,
            "byteLength" : 32,
            "byteOffset" : 48
        },
        {
            "buffer" : 0,
            "byteLength" : 12,
            "byteOffset" : 80
        },
        {
            "buffer" : 0,
            "byteLength" : 48,
            "byteOffset" : 92
        },
        {
            "buffer" : 0,
            "byteLength" : 32,
            "byteOffset" : 140
        },
        {
            "buffer" : 0,
            "byteLength" : 12,
            "byteOffset" : 172
        },
        {
            "buffer" : 0,
            "byteLength" : 48,
            "byteOffset" : 184
        },
        {
            "buffer" : 0,
            "byteLength" : 32,
            "byteOffset" : 232
        }
    ],
    "buffers" : [
        {
            "byteLength" : 264,
            "uri" : "MainMenu.bin"
        }
    ]
}
